<?xml version="1.0" standalone="no"?><!DOCTYPE svg PUBLIC "-//W3C//DTD SVG 1.1//EN" "http://www.w3.org/Graphics/SVG/1.1/DTD/svg11.dtd"><svg t="1670095274450" class="icon" viewBox="0 0 1024 1024" version="1.1" xmlns="http://www.w3.org/2000/svg" p-id="4483" xmlns:xlink="http://www.w3.org/1999/xlink" width="200" height="200"><path d="M281.535354 387.361616c-31.806061 0-57.664646 26.763636-57.664647 59.733333 0 32.969697 25.858586 59.733333 57.664647 59.733334s57.664646-26.763636 57.664646-59.733334c0-33.09899-25.858586-59.733333-57.664646-59.733333z m230.529292 0c-31.806061 0-57.664646 26.763636-57.664646 59.733333 0 32.969697 25.729293 59.733333 57.664646 59.733334 31.806061 0 57.535354-26.763636 57.535354-59.733334 0-33.09899-25.858586-59.733333-57.535354-59.733333z m230.4 0c-31.806061 0-57.664646 26.763636-57.664646 59.733333 0 32.969697 25.858586 59.733333 57.664646 59.733334s57.664646-26.763636 57.664647-59.733334c-0.129293-33.09899-25.858586-59.733333-57.664647-59.733333z m115.2-270.222222H166.335354c-63.612121 0-115.2 53.527273-115.2 119.59596v390.981818c0 65.939394 52.751515 126.836364 117.785858 126.836363h175.579798c30.513131 32.581818 157.220202 149.979798 157.220202 149.979798 5.559596 5.818182 14.739394 5.818182 20.29899 0 0 0 92.832323-91.410101 153.212121-149.979798h179.717172c65.034343 0 117.785859-60.89697 117.785859-126.836363V236.606061c0.129293-65.939394-51.458586-119.466667-115.070708-119.466667z m57.535354 510.577778c0 32.969697-27.668687 67.620202-60.250505 67.620202H678.335354c-21.462626 0-40.727273 21.979798-40.727273 21.979798l-124.121212 114.941414-124.121212-114.941414s-23.660606-21.979798-43.830303-21.979798H168.921212c-32.581818 0-60.250505-34.650505-60.250505-67.620202V236.606061c0-32.969697 25.729293-59.733333 57.664647-59.733334h691.329292c31.806061 0 57.535354 26.763636 57.535354 59.733334v391.111111z m0 0" fill="" p-id="4484"></path></svg>