<?xml version="1.0" standalone="no"?>
<!DOCTYPE svg PUBLIC "-//W3C//DTD SVG 1.1//EN" "http://www.w3.org/Graphics/SVG/1.1/DTD/svg11.dtd"><svg t="1670101711018"
    class="icon" viewBox="0 0 1024 1024" version="1.1" xmlns="http://www.w3.org/2000/svg" p-id="13516"
    xmlns:xlink="http://www.w3.org/1999/xlink" width="200" height="200">
    <path
        d="M856.78410323 219.30116129c-48.90535914-48.91196559-113.93376344-75.84756989-183.1000086-75.84756989-58.52325161 0-113.63096774 18.95390968-159.37293764 54.81372903l-2.02377634 1.58995268-2.02377635-1.59655913c-45.84436989-36.15270537-101.15358279-55.25746237-159.94769893-55.25746237-69.16624516 0-134.18914408 26.9356043-183.09450322 75.84096344-48.91086452 48.91086452-75.84646882 113.93376344-75.84646881 183.10000861 0 69.16734624 26.9356043 134.19024516 75.84646881 183.09560429l323.3615828 323.36708818a30.05935484 30.05935484 0 0 0 21.12412903 8.77226666h0.1068043a29.6871914 29.6871914 0 0 0 21.11862366-8.74363871l323.84055053-322.95638709c48.83268818-48.82167742 75.72314839-113.84347527 75.72865377-183.08899785 0-69.24001721-26.89156129-134.26291613-75.71764301-183.08899785zM436.9540129 605.31612903a26.49627527 26.49627527 0 0 1-18.86912688 7.81983656 26.49627527 26.49627527 0 0 1-18.86912688-7.81983656L264.31091613 470.42339785c-10.21027097-10.48003441-9.99005592-27.40906666 0.54613334-37.68099785a26.55243011 26.55243011 0 0 1 18.63239569-7.57649892c6.99623226 0 13.60929032 2.68882581 18.62028387 7.57099355l134.84428387 134.83767742a26.7219957 26.7219957 0 0 1 0 37.74265806z"
        fill="#31c27c" p-id="13517"></path>
</svg>