<?xml version="1.0" standalone="no"?>
<!DOCTYPE svg PUBLIC "-//W3C//DTD SVG 1.1//EN" "http://www.w3.org/Graphics/SVG/1.1/DTD/svg11.dtd"><svg t="1672521631631"
    class="icon" viewBox="0 0 1024 1024" version="1.1" xmlns="http://www.w3.org/2000/svg" p-id="10523"
    xmlns:xlink="http://www.w3.org/1999/xlink" width="200" height="200">
    <path
        d="M262 971.5c-91.2 0-165.5-74.2-165.5-165.5S170.8 640.5 262 640.5c22.1 0 40 17.9 40 40s-17.9 40-40 40c-47.1 0-85.5 38.3-85.5 85.5s38.3 85.5 85.5 85.5 85.5-38.3 85.5-85.5V262.3c0-17.2 11-32.5 27.4-37.9L876.8 57c12.2-4.1 25.6-2 36 5.5 10.4 7.5 16.6 19.6 16.6 32.4v543.7c0 91.2-74.2 165.5-165.5 165.5s-165.5-74.2-165.5-165.5S672.7 473.2 764 473.2c22.1 0 40 17.9 40 40s-17.9 40-40 40c-47.1 0-85.5 38.3-85.5 85.5s38.3 85.5 85.5 85.5 85.5-38.3 85.5-85.5V150.5l-422 140.6V806c0 91.3-74.2 165.5-165.5 165.5z"
        p-id="10524"></path>
</svg>